<svg width="28" height="28" viewBox="0 0 28 28" fill="none" xmlns="http://www.w3.org/2000/svg">
<path d="M26.9432 11.5657L15.5225 11.5652C15.0182 11.5652 14.6094 11.9739 14.6094 12.4782V16.1267C14.6094 16.6309 15.0182 17.0398 15.5224 17.0398H21.9539C21.2496 18.8675 19.9352 20.3981 18.2582 21.3707L21.0005 26.118C25.3996 23.5738 28.0004 19.1097 28.0004 14.1125C28.0004 13.401 27.948 12.8923 27.8431 12.3196C27.7633 11.8845 27.3856 11.5657 26.9432 11.5657Z" fill="#167EE6"/>
<path d="M13.9998 22.5218C10.8523 22.5218 8.10467 20.8021 6.62895 18.2573L1.88184 20.9936C4.29761 25.1805 8.82314 28 13.9998 28C16.5392 28 18.9354 27.3163 20.9996 26.1247V26.1182L18.2573 21.3708C17.0029 22.0983 15.5513 22.5218 13.9998 22.5218Z" fill="#12B347"/>
<path d="M20.9999 26.1245V26.118L18.2575 21.3706C17.0031 22.0981 15.5516 22.5216 14 22.5216V27.9999C16.5395 27.9999 18.9358 27.3161 20.9999 26.1245Z" fill="#0F993E"/>
<path d="M5.47817 13.9999C5.47817 12.4485 5.90155 10.9971 6.62893 9.7427L1.88182 7.00647C0.683691 9.06419 0 11.4539 0 13.9999C0 16.546 0.683691 18.9357 1.88182 20.9934L6.62893 18.2572C5.90155 17.0028 5.47817 15.5514 5.47817 13.9999Z" fill="#FFD500"/>
<path d="M13.9998 5.47825C16.0522 5.47825 17.9375 6.20756 19.41 7.42069C19.7733 7.71994 20.3013 7.69834 20.6341 7.36557L23.2191 4.78049C23.5966 4.40293 23.5697 3.78491 23.1664 3.43502C20.6992 1.29461 17.4891 0 13.9998 0C8.82314 0 4.29761 2.81952 1.88184 7.00649L6.62895 9.74272C8.10467 7.19795 10.8523 5.47825 13.9998 5.47825Z" fill="#FF4B26"/>
<path d="M19.4102 7.42069C19.7735 7.71994 20.3016 7.69834 20.6343 7.36557L23.2193 4.7805C23.5968 4.40293 23.5699 3.78491 23.1667 3.43502C20.6995 1.29456 17.4894 0 14 0V5.47825C16.0524 5.47825 17.9377 6.20756 19.4102 7.42069Z" fill="#D93F21"/>
</svg>
