<svg width="19" height="21" viewBox="0 0 19 21" fill="none" xmlns="http://www.w3.org/2000/svg">
<path d="M14.4259 17.5137H2.22489C2.48614 16.8307 2.84938 16.2214 3.29294 15.668H11.0394C11.5252 15.668 11.919 15.3007 11.919 14.8477C11.919 14.3946 11.5252 14.0273 11.0394 14.0273H5.01384C6.41967 12.9612 8.14607 12.1028 9.91382 11.2238C12.0877 10.143 14.3357 9.02524 16.0423 7.46484C18.0325 5.64514 19 3.47169 19 0.820312C19 0.367254 18.6062 0 18.1204 0C17.6346 0 17.2407 0.367254 17.2407 0.820312C17.2407 1.19232 17.2176 1.54715 17.1736 1.88672H4.57407C4.08825 1.88672 3.69444 2.25397 3.69444 2.70703C3.69444 3.16009 4.08825 3.52734 4.57407 3.52734H16.7588C16.4923 4.21042 16.1237 4.81991 15.6742 5.37305H8.09259C7.60677 5.37305 7.21296 5.7403 7.21296 6.19336C7.21296 6.64642 7.60677 7.01367 8.09259 7.01367H13.9313C12.646 7.97783 11.0992 8.773 9.49996 9.57022C5.66037 7.65848 1.75926 5.63747 1.75926 0.820312C1.75926 0.367254 1.36545 0 0.87963 0C0.39381 0 0 0.367254 0 0.820312C0 3.43387 0.938521 5.58054 2.86913 7.38302C4.24276 8.66549 5.97673 9.64712 7.64447 10.5006C5.94757 11.3713 4.28811 12.3186 2.95767 13.5351C0.967461 15.3549 0 17.5283 0 20.1797C0 20.6327 0.39381 21 0.87963 21C1.36545 21 1.75926 20.6327 1.75926 20.1797C1.75926 19.8226 1.7809 19.4815 1.82154 19.1543H14.4259C14.9117 19.1543 15.3056 18.787 15.3056 18.334C15.3056 17.8809 14.9117 17.5137 14.4259 17.5137Z" fill="#424259"/>
</svg>
