<svg width="22" height="22" viewBox="0 0 22 22" fill="none" xmlns="http://www.w3.org/2000/svg">
<path d="M20.3478 14.408C21.0567 13.6876 21.2769 12.6129 21.0017 11.2121C20.9509 10.9535 20.7449 10.7512 20.4816 10.7013C19.2976 10.4769 18.3424 10.5876 17.6323 11.0296V4.56672C17.6323 3.73742 16.9449 3.06281 16.1008 3.06281H13.7361C13.4648 2.30871 12.7319 1.76687 11.8724 1.76687H10.9137C10.7579 0.767852 9.87661 0 8.81591 0C7.75566 0 6.87437 0.767852 6.71816 1.76687H5.75986C4.90045 1.76687 4.16707 2.30871 3.89621 3.06281H1.53153C0.687 3.06281 0 3.73742 0 4.56672V20.4961C0 21.3254 0.687 22 1.53153 22H19.0958C19.3185 22 20.0572 21.827 20.5864 21.1845C22.8928 18.385 22.0593 15.5151 20.3478 14.408ZM19.7813 11.8997C19.8623 12.6456 19.7306 13.1924 19.3882 13.5284C18.9673 13.9415 18.2265 14.0328 17.6355 14.007C17.5598 12.3528 18.323 11.747 19.7813 11.8997ZM5.66228 3.06281C5.73448 3.05293 5.61371 3.05594 7.35002 3.05594C7.71277 3.05594 8.00639 2.76762 8.00639 2.41141V2.08398C8.00639 1.6457 8.36958 1.28906 8.81591 1.28906C9.26224 1.28906 9.62543 1.6457 9.62543 2.08398V2.41141C9.62543 2.76762 9.91949 3.05594 10.2818 3.05594C12.0177 3.05594 11.8987 3.05293 11.9695 3.06281C12.289 3.10922 12.5353 3.38078 12.5353 3.70734C12.5353 4.03391 12.289 4.30547 11.9695 4.35187C11.8925 4.36219 5.74629 4.36305 5.66228 4.35187C5.34284 4.30547 5.09649 4.03391 5.09649 3.70734C5.09649 3.38078 5.34284 3.10922 5.66228 3.06281ZM9.77859 17.9846H11.963C12.0344 18.8937 12.3866 19.8255 13.005 20.7109H1.53153C1.41076 20.7109 1.31274 20.6147 1.31274 20.4961V4.56672C1.31274 4.44812 1.41076 4.35187 1.53153 4.35187H3.89621C4.16707 5.10598 4.90045 5.64781 5.75986 5.64781H11.8724C12.7318 5.64781 13.4648 5.10598 13.7361 4.35187H16.1007C16.2211 4.35187 16.3195 4.44812 16.3195 4.56672V14.2091C15.8525 13.9813 15.3432 13.8909 14.8253 13.9553C13.5469 14.1141 12.4096 15.1754 12.0565 16.6955H9.77859C9.41627 16.6955 9.12222 16.9843 9.12222 17.34C9.12222 17.6962 9.41627 17.9846 9.77859 17.9846ZM19.5658 20.3738C19.4297 20.539 19.2353 20.6599 19.0261 20.7109C18.6342 20.7109 15.3976 20.7109 14.9854 20.7109C14.7447 20.6679 14.5278 20.5465 14.3856 20.3738C12.2366 17.7654 13.5987 15.407 14.9902 15.2341C15.5283 15.1673 16.032 15.4247 16.4469 15.9787C16.7091 16.3288 17.2425 16.3286 17.5045 15.9787C17.9194 15.4247 18.423 15.1673 18.9613 15.2341C20.3522 15.407 21.7152 17.7647 19.5658 20.3738Z" fill="#424259"/>
</svg>
