<svg width="21" height="20" viewBox="0 0 21 20" fill="none" xmlns="http://www.w3.org/2000/svg">
<path d="M16.7721 3.06146L3.19196 15.973L4.18105 16.9166L17.7612 4.00505L16.7721 3.06146Z" fill="#424259"/>
<path d="M4.18105 3.06166L3.19196 4.00525L16.7721 16.9168L17.7612 15.9732L4.18105 3.06166Z" fill="#424259"/>
<path d="M12.6651 12.2175C10.7364 14.0542 9.81281 16.5872 10.1315 19.1668L11.5217 19.011C11.2534 16.8395 12.0311 14.7068 13.6549 13.1601C15.3384 11.5568 17.7389 10.8128 20.0722 11.1692L20.2941 9.85279C17.5177 9.42837 14.6652 10.3126 12.6651 12.2175Z" fill="#424259"/>
<path d="M10.1479 0.818726L8.7516 0.914741C8.90651 2.96076 8.11319 4.97451 6.57133 6.44298C5.05515 7.9063 3.00018 8.64099 0.789315 8.51232L0.703674 9.84322C0.900139 9.85478 1.09496 9.86033 1.28909 9.86033C3.68707 9.86033 5.89859 8.99099 7.5646 7.38255C9.3907 5.64337 10.3322 3.25095 10.1479 0.818726Z" fill="#424259"/>
<path d="M10.5 0C4.71032 0 0 4.48602 0 10C0 15.514 4.71032 20 10.5 20C16.2897 20 21 15.514 21 10C21 4.48602 16.2897 0 10.5 0ZM10.5 18.6667C5.48215 18.6667 1.39999 14.7789 1.39999 10C1.39999 5.22109 5.48215 1.33332 10.5 1.33332C15.5179 1.33332 19.6 5.22109 19.6 10C19.6 14.7789 15.5179 18.6667 10.5 18.6667Z" fill="#424259"/>
</svg>
