<svg id="Capa_1" enable-background="new 0 0 511.998 511.998" height="512" viewBox="0 0 511.998 511.998" width="512" xmlns="http://www.w3.org/2000/svg"><g><path d="m466.998 196.01-105.998-.002-.01-75.01c0-41.355-33.635-75-74.99-75-8.284 0-15 6.716-15 15v11.833c0 67.977-5.893 102.79-38.117 153.176-1.64 0-205.298.001-217.883 0-8.284 0-15 6.706-15 14.99v210c0 8.284 6.716 15 15 15h151c7.465 0 13.793-5.489 14.849-12.879l2.446-17.121h37.553c25.839 19.382 57.561 30 89.929 30l111.218.003c24.813 0 45-20.187 45-45 0-8.016-2.107-15.551-5.796-22.076 12.499-8.004 20.799-22.013 20.799-37.924 0-8.021-2.12-15.553-5.814-22.082 12.502-8.003 20.814-22.004 20.814-37.918 0-8.021-2.12-15.553-5.814-22.082 12.502-8.003 20.814-22.004 20.814-37.918 0-24.813-20.187-45-45-44.99zm-437.008 239.998v-180.01h148.715l-25.714 180.01zm407.008-60.008h-15c-8.284 0-15 6.716-15 15s6.716 15 15 15c8.27 0 14.998 6.729 14.998 15s-6.729 15-15 15l-111.218.009c-27.335 0-54.094-9.469-75.345-26.662-2.67-2.16-6-3.338-9.435-3.338h-38.417l21.429-150.01h31.99c5.015 0 9.699-2.506 12.481-6.68 39.85-59.775 47.151-100.15 47.505-170.755 17.468 6.187 30.014 22.873 30.014 42.434v90c0 8.284 6.716 15 15 15l120.998-.009c8.271 0 15 6.739 15 15.01s-6.729 15-15 15h-15c-8.284 0-15 6.716-15 15s6.716 15 15 15c8.271 0 15 6.729 15 15s-6.729 15-15 15h-15c-8.284 0-15 6.716-15 15s6.716 15 15 15c8.271 0 15 6.729 15 15s-6.729 15.001-15 15.001z"/><circle cx="105.998" cy="391" r="15"/></g></svg>